<svg width="251" height="138" viewBox="0 0 251 138" fill="none" xmlns="http://www.w3.org/2000/svg">
<path fill-rule="evenodd" clip-rule="evenodd" d="M207.5 32C211.366 32 214.5 35.134 214.5 39C214.5 42.866 211.366 46 207.5 46H167.5C171.366 46 174.5 49.134 174.5 53C174.5 56.866 171.366 60 167.5 60H189.5C193.366 60 196.5 63.134 196.5 67C196.5 70.866 193.366 74 189.5 74H179.326C174.452 74 170.5 77.134 170.5 81C170.5 83.5773 172.5 85.9107 176.5 88C180.366 88 183.5 91.134 183.5 95C183.5 98.866 180.366 102 176.5 102H93.5C89.634 102 86.5 98.866 86.5 95C86.5 91.134 89.634 88 93.5 88H54.5C50.634 88 47.5 84.866 47.5 81C47.5 77.134 50.634 74 54.5 74H94.5C98.366 74 101.5 70.866 101.5 67C101.5 63.134 98.366 60 94.5 60H69.5C65.634 60 62.5 56.866 62.5 53C62.5 49.134 65.634 46 69.5 46H109.5C105.634 46 102.5 42.866 102.5 39C102.5 35.134 105.634 32 109.5 32H207.5ZM207.5 60C211.366 60 214.5 63.134 214.5 67C214.5 70.866 211.366 74 207.5 74C203.634 74 200.5 70.866 200.5 67C200.5 63.134 203.634 60 207.5 60Z" fill="white"/>
<path d="M121 100C139.502 100 154.5 85.0015 154.5 66.5C154.5 47.9985 139.502 33 121 33C102.498 33 87.5 47.9985 87.5 66.5C87.5 85.0015 102.498 100 121 100Z" fill="#FFF3EB" stroke="#A4ACB9" stroke-width="2.5"/>
<path fill-rule="evenodd" clip-rule="evenodd" d="M115.632 92.4939C117.391 92.8185 119.18 92.9872 121 93C135.636 93 147.5 81.1355 147.5 66.5C147.5 51.8645 135.636 40 121 40C117.24 40 113.664 40.7829 110.424 42.1946C104.794 44.6479 100.182 48.9999 97.396 54.4419C95.5445 58.0589 94.5 62.1575 94.5 66.5C94.5 70.44 95.3599 74.1792 96.9021 77.5401C98.0032 79.9396 99.4521 82.1463 101.184 84.0956" fill="white"/>
<path d="M115.632 92.4939C117.391 92.8185 119.18 92.9872 121 93C135.636 93 147.5 81.1355 147.5 66.5C147.5 51.8645 135.636 40 121 40C117.24 40 113.664 40.7829 110.424 42.1946C104.794 44.6479 100.182 48.9999 97.396 54.4419C95.5445 58.0589 94.5 62.1575 94.5 66.5C94.5 70.44 95.3599 74.1792 96.9021 77.5401C98.0032 79.9396 99.4521 82.1463 101.184 84.0956" stroke="#A4ACB9" stroke-width="2.5" stroke-linecap="round"/>
<path d="M104.297 87.0752C106.445 88.8212 108.872 90.2375 111.5 91.2471" stroke="#A4ACB9" stroke-width="2.5" stroke-linecap="round"/>
<path d="M148.5 93L154.5 99" stroke="#A4ACB9" stroke-width="2.5"/>
<path fill-rule="evenodd" clip-rule="evenodd" d="M153.531 98.0299C151.638 99.9226 151.638 102.991 153.531 104.884L164.616 115.969C166.509 117.862 169.578 117.862 171.47 115.969C173.363 114.077 173.363 111.008 171.47 109.115L160.385 98.0299C158.492 96.1372 155.424 96.1372 153.531 98.0299Z" fill="#FFF3EB" stroke="#A4ACB9" stroke-width="2.5"/>
<path d="M158.5 100L169.5 111" stroke="white" stroke-width="2.5" stroke-linecap="round"/>
<path fill-rule="evenodd" clip-rule="evenodd" d="M114.501 55C114.501 66.598 123.903 76 135.501 76C137.779 76 139.972 75.6372 142.027 74.9662C138.674 83.2871 130.523 89.1607 121.001 89.1607C108.485 89.1607 98.3398 79.0152 98.3398 66.5C98.3398 55.1596 106.67 45.7648 117.546 44.1011C115.613 47.2793 114.501 51.0097 114.501 55Z" fill="#FFF3EB"/>
<path d="M121.5 48C120.227 48 118.982 48.1253 117.779 48.3642M114.145 49.4761C107.304 52.3508 102.5 59.1144 102.5 67" stroke="#C1C7D0" stroke-width="2.5" stroke-linecap="round"/>
<path d="M174.676 66.7773H166.5M181 59H163.824H181ZM188 59H185.779H188Z" stroke="#C1C7D0" stroke-width="2.5" stroke-linecap="round" stroke-linejoin="round"/>
<path d="M84.6763 88.7773H76.5005M80.0005 80H62.8247H80.0005ZM57.0005 80H52.7793H57.0005Z" stroke="#C1C7D0" stroke-width="2.5" stroke-linecap="round" stroke-linejoin="round"/>
</svg>
